# xmcd CD database file
#
# Track frame offsets:
#	150
#	38560
#	77325
#	125216
#	175004
#
# Disc length: 3073 seconds
#
# Revision: 0
# Processed by: cddbd v1.5.2PL0 Copyright (c) Steve Scherf et al.
# Submitted via: CDex 1.51
#
DISCID=320bff05
DTITLE=Stefan Esser - SHIRANI
DYEAR=2008
DGENRE=Kinder-Meditation
TTITLE0=Wie kommt ein richtiger Komet ins Computerspiel
TTITLE1=Sternengoldstaub vom kosmischen Schutzengel als Beweis
TTITLE2=Shiranis geheime Verabredung mit Hannah und Willi
TTITLE3=Start zum unglaublichen Rundflug durchs Weltall
TTITLE4=Mit dem Herzen die tollsten Sterne sehen echt cool
EXTD=YEAR: 2008
EXTT0=
EXTT1=
EXTT2=
EXTT3=
EXTT4=
PLAYORDER=
